<?xml version="1.0" encoding="UTF-8"?>
<svg width="500" height="400" viewBox="0 0 500 400" fill="none" xmlns="http://www.w3.org/2000/svg">
  <path d="M250 50C361.127 50 450 138.873 450 250C450 361.127 361.127 450 250 450C138.873 450 50 361.127 50 250C50 138.873 138.873 50 250 50Z" fill="#F7931A"/>
  <path d="M250 100C333.513 100 400 166.487 400 250C400 333.513 333.513 400 250 400C166.487 400 100 333.513 100 250C100 166.487 166.487 100 250 100Z" fill="#ffffff"/>
  <path d="M320 220C320 198.954 302.091 181.818 280 181.818H220C197.909 181.818 180 198.954 180 220V280C180 301.046 197.909 318.182 220 318.182H280C302.091 318.182 320 301.046 320 280V220Z" fill="#F7931A"/>
  <path d="M270 250L250 270L230 250L250 230L270 250Z" fill="#ffffff"/>
</svg> 